<?xml version="1.0" standalone="no"?>
<!DOCTYPE svg PUBLIC "-//W3C//DTD SVG 1.1//EN" "http://www.w3.org/Graphics/SVG/1.1/DTD/svg11.dtd" >
<svg xmlns="http://www.w3.org/2000/svg">
<metadata>
Created by FontForge 20120731 at Wed Mar 25 20:01:10 2015
 By Ads
</metadata>
<defs>
<font id="iconfont" horiz-adv-x="1024" >
  <font-face 
    font-family="iconfont"
    font-weight="500"
    font-stretch="normal"
    units-per-em="1024"
    panose-1="2 0 6 3 0 0 0 0 0 0"
    ascent="812"
    descent="-212"
    x-height="792"
    bbox="-3.10448 -224.029 1025 812"
    underline-thickness="50"
    underline-position="-100"
    unicode-range="U+0078-F02AF"
  />
<missing-glyph horiz-adv-x="374" 
d="M34 0v682h272v-682h-272zM68 34h204v614h-204v-614z" />
    <glyph glyph-name=".notdef" horiz-adv-x="374" 
d="M34 0v682h272v-682h-272zM68 34h204v614h-204v-614z" />
    <glyph glyph-name=".null" horiz-adv-x="0" 
 />
    <glyph glyph-name="nonmarkingreturn" horiz-adv-x="341" 
 />
    <glyph glyph-name="x" unicode="x" horiz-adv-x="1001" 
d="M281 543q-27 -1 -53 -1h-83q-18 0 -36.5 -6t-32.5 -18.5t-23 -32t-9 -45.5v-76h912v41q0 16 -0.5 30t-0.5 18q0 13 -5 29t-17 29.5t-31.5 22.5t-49.5 9h-133v-97h-438v97zM955 310v-52q0 -23 0.5 -52t0.5 -58t-10.5 -47.5t-26 -30t-33 -16t-31.5 -4.5q-14 -1 -29.5 -0.5
t-29.5 0.5h-32l-45 128h-439l-44 -128h-29h-34q-20 0 -45 1q-25 0 -41 9.5t-25.5 23t-13.5 29.5t-4 30v167h911zM163 247q-12 0 -21 -8.5t-9 -21.5t9 -21.5t21 -8.5q13 0 22 8.5t9 21.5t-9 21.5t-22 8.5zM316 123q-8 -26 -14 -48q-5 -19 -10.5 -37t-7.5 -25t-3 -15t1 -14.5
t9.5 -10.5t21.5 -4h37h67h81h80h64h36q23 0 34 12t2 38q-5 13 -9.5 30.5t-9.5 34.5q-5 19 -11 39h-368zM336 498v228q0 11 2.5 23t10 21.5t20.5 15.5t34 6h188q31 0 51.5 -14.5t20.5 -52.5v-227h-327z" />
    <glyph glyph-name="uni3464" unicode="&#x3464;" 
d="M881 292l-483 520h-223l483 -520l-483 -484h223z" />
    <glyph glyph-name="uni3465" unicode="&#x3465;" 
d="M658 -192h223l-483 484l483 520h-223l-483 -520z" />
    <glyph glyph-name="uniE604" unicode="&#xe604;" 
d="M1024 -11q0 -30 -40.5 -57.5t-109 -47.5t-163.5 -32t-199 -12q-139 0 -257 20t-186.5 54.5t-68.5 74.5q0 17 24.5 40t39.5 33q12 7 24 -2.5t2 -23.5q-5 -3 -14.5 -9.5t-21 -18t-11.5 -19.5q0 -44 137.5 -75t331.5 -31t331.5 31t137.5 75q0 14 -15 27.5t-43 24.5t-67 20.5
t-87 17.5q-73 -132 -257 -132q-148 0 -234 84.5t-86 235.5v213h640q22 0 44.5 -10t41 -28.5t30.5 -47t12 -61.5q0 -45 -20 -80.5t-48.5 -53.5t-59.5 -18h-29q-5 -34 -18 -66q110 -20 174.5 -53t64.5 -73zM768 437h-533v-85h533v85zM768 309h-533v-42q0 -130 74.5 -204
t202.5 -74q125 0 190.5 72.5t65.5 205.5v42zM832 224q32 0 58.5 30t26.5 77q0 46 -27 76t-58 30h-21v-170q0 -20 -2 -43h23zM661 544l13 33q9 29 9 53q-1 45 -22 85q0 14 11 19t21.5 -0.5t10.5 -18.5l14 -38q7 -27 7 -48q0 -8 -1 -17.5t-3 -17.5t-4 -15.5t-4.5 -13.5
t-4.5 -11l-3 -8l-1 -2q0 -12 -10.5 -17.5t-21.5 -0.5t-11 18zM469 544l13 33q9 29 9 53q-1 45 -22 85q0 14 11 19t21.5 -0.5t10.5 -18.5l14 -38q7 -27 7 -48q0 -33 -21 -85q0 -12 -10.5 -17.5t-21.5 -0.5t-11 18zM277 544l13 33q9 29 9 53q-1 45 -22 85q0 14 11 19
t21.5 -0.5t10.5 -18.5l14 -38q7 -27 7 -48q0 -8 -1 -17.5t-3 -17.5t-4 -15.5t-4.5 -13.5t-4.5 -11l-3 -8l-1 -2q0 -12 -10.5 -17.5t-21.5 -0.5t-11 18z" />
    <glyph glyph-name="uniE60F" unicode="&#xe60f;" 
d="M65 12h894v65h-894v-65zM65 267h894v66h-894v-66zM65 588v-65h894v65h-894z" />
    <glyph glyph-name="uniE612" unicode="&#xe612;" 
d="M1004 298q0 -100 -39 -191t-104.5 -157t-156.5 -104.5t-191 -38.5t-191 38.5t-157 104.5t-105 157t-39 191t39 191t105 157t157 104.5t191 38.5q80 0 155 -24.5t135.5 -70t106 -106t70 -135.5t24.5 -155zM513 724q-70 0 -135 -21.5t-117 -61t-91.5 -92t-61 -117.5
t-21.5 -134q0 -116 57 -214t155 -155t214 -57t214 57t155 155t57 214t-57 214t-155 155t-214 57z" />
    <glyph glyph-name="uniE616" unicode="&#xe616;" 
d="M948 563q0 -11 -2.5 -21t-7.5 -18.5t-13 -14.5t-20 -9t-26 -3h-722q-24 0 -45 8.5t-33 24t-12 33.5q0 27 26.5 46.5t63.5 19.5h701q12 0 24 -2.5t21.5 -6.5t18 -10t14.5 -13.5t9 -16t3 -17.5v0zM948 -8q0 -19 -7 -33.5t-22.5 -23.5t-39.5 -9h-722q-37 0 -63.5 19.5
t-26.5 46.5q0 28 26.5 47.5t63.5 19.5h701q37 0 63.5 -19.5t26.5 -47.5v0zM948 278q0 -30 -17 -48.5t-52 -18.5h-722q-37 0 -63.5 19.5t-26.5 47.5q0 27 26.5 46.5t63.5 19.5h701q37 0 63.5 -19.5t26.5 -46.5v0z" />
    <glyph glyph-name="uniE617" unicode="&#xe617;" 
d="M513 299zM289 299q0 93 65.5 159t158.5 66t158.5 -66t65.5 -159t-65.5 -158.5t-158.5 -65.5t-158.5 65.5t-65.5 158.5zM1004 299q0 -100 -39 -191t-104.5 -156.5t-156.5 -104.5t-191 -39t-191 39t-157 104.5t-105 156.5t-39 191t39 191t105 157t157 105t191 39t191 -39
t156.5 -105t104.5 -157t39 -191zM513 725q-70 0 -135 -21.5t-117 -60.5t-91.5 -91.5t-61 -117.5t-21.5 -135q0 -115 57 -213.5t155 -155.5t214 -57t214 57t155 155.5t57 213.5q0 87 -34 166t-91 136t-135.5 90.5t-165.5 33.5z" />
    <glyph glyph-name="uniE61A" unicode="&#xe61a;" 
d="M386 596q0 18 1 34t3.5 29.5t6.5 24.5t8.5 20.5t10.5 16.5t13 12.5t15.5 9t17.5 5t19 1.5q31 0 52 -15.5t32.5 -49.5t11.5 -88v-589q0 -156 -96 -156q-47 0 -71 38t-24 118v589z" />
    <glyph glyph-name="uniE61B" unicode="&#xe61b;" 
d="M124 229h58v-300q0 -40 23 -60t54 -20h3h2h161v319q0 7 5 10h165q5 -3 5 -11v-291v-27h159q44 0 70 39q11 17 16 35v2l1 306h57q31 0 46 25q5 9 7.5 20.5t2.5 26.5v11l-7 7q-41 41 -229 230t-189 190q-10 9 -27 9q-8 0 -14 -2.5t-11 -6.5l-417 -425v-11q0 -30 19 -53
q5 -7 12 -12t14 -8t14 -3zM904 284h-1h-109l-1 -351q-2 -4 -4 -8.5t-6 -10t-10 -9t-14 -3.5h-106v267q-1 7 -3.5 17t-8.5 18q-8 13 -19.5 19.5t-25.5 6.5h-166q-23 0 -40.5 -18.5t-17.5 -43.5v-266h-109l-4 -1q-14 0 -19 8t-5 20v353h-107l-2 2t-4 5t-3 7l389 396l398 -399
q-1 -6 -2 -9z" />
    <glyph glyph-name="uniE61C" unicode="&#xe61c;" 
d="M663 324q54 37 85.5 94.5t31.5 124.5q0 110 -81 189t-195 79q-75 0 -138.5 -36t-100.5 -98t-37 -134q0 -69 33.5 -128t89.5 -95q-29 -13 -56 -30.5t-50 -38.5t-43 -45t-35.5 -51.5t-26 -57t-16.5 -61.5t-6 -65q0 -48 35.5 -84.5t94 -57t125.5 -30.5t139 -10t139 10
t125.5 30.5t94 57t35.5 84.5q0 117 -67 213t-176 140zM307 543q0 78 58 133.5t139 55.5q54 0 99 -25.5t71.5 -69t26.5 -94.5q0 -79 -57.5 -134.5t-139.5 -55.5q-40 0 -76.5 15t-63 40.5t-42 60.5t-15.5 74zM512 -132q-135 0 -225 32t-90 71q0 125 92.5 214t222.5 89
t222.5 -89t92.5 -214q0 -39 -90 -71t-225 -32z" />
    <glyph glyph-name="uniE627" unicode="&#xe627;" 
d="M874 572l-272 -272l272 -272l-90 -90l-272 272l-272 -272l-90 90l272 272l-272 272l90 90l272 -272l272 272z" />
    <glyph glyph-name="uniE62A" unicode="&#xe62a;" 
d="M647 347q16 12 29 26.5t23 31.5t17.5 35t11 38.5t3.5 40.5q0 91 -64 155.5t-155 64.5t-155 -64.5t-64 -155.5q0 -25 5.5 -50t17 -47t27 -41t34.5 -34q-123 -49 -186 -166q-45 -81 -45 -174v-73q0 -15 11 -25.5t26 -10.5h658q10 0 18.5 4.5t13.5 13t5 18.5v73
q0 114 -64 206.5t-167 133.5zM512 666q61 0 103.5 -43t42.5 -103.5t-42.5 -103.5t-103.5 -43t-103.5 43t-42.5 103.5t42.5 103.5t103.5 43zM805 -29h-586v36q0 121 86 207t207 86t207 -86t86 -207v-36zM239 313q20 3 28 21q1 2 1 5q1 1 1 2v1q0 2 1 3v3v3q0 1 -1 3v2v2
q0 1 -1 2q0 2 -0.5 2.5t-1.5 2.5q-1 3 -2.5 5t-2.5 4h-1l-4 4l-4 2q-2 2 -4 3q-30 13 -47.5 40t-17.5 60q0 38 23.5 67.5t59.5 38.5q2 8 5 16l6 16q3 8 7 15.5t8.5 14.5t8.5 14h-4l-4 1q-50 0 -92 -24.5t-66.5 -67t-24.5 -91.5q0 -70 47 -123q-72 -37 -114.5 -106.5
t-42.5 -152.5v-57q0 -10 5 -18.5t13.5 -13.5t18.5 -5h73v74h-37v20q0 75 46 134.5t120 77.5zM867 360q22 25 34.5 56.5t12.5 66.5q0 75 -53.5 129t-129.5 54q-1 0 -2.5 -0.5t-2.5 -0.5h-3q24 -35 35 -76q24 -6 43 -21.5t29.5 -37.5t10.5 -47q0 -33 -17.5 -60t-47.5 -40
q-7 -3 -12 -8v-1h-1l-5 -9q-2 -3 -2 -5q-1 -1 -1 -2v-2v-2q-1 -2 -1 -3v-3v-3q1 -1 1 -4l2 -7q8 -18 28 -21q74 -18 120 -77.5t46 -134.5v-20h-37v-74h73q16 0 26.5 11t10.5 26v57q0 83 -42.5 152.5t-114.5 106.5z" />
    <glyph glyph-name="uniE62E" unicode="&#xe62e;" 
d="M512 748q-185 0 -316.5 -131.5t-131.5 -316.5t131.5 -316.5t316.5 -131.5t316.5 131.5t131.5 316.5t-131.5 316.5t-316.5 131.5zM512 684q136 0 241 -85l-540 -540q-85 105 -85 241q0 159 112.5 271.5t271.5 112.5zM512 -84q-145 0 -254 97l541 541q46 -52 71.5 -117
t25.5 -137q0 -159 -112.5 -271.5t-271.5 -112.5z" />
    <glyph glyph-name="uniE62F" unicode="&#xe62f;" 
d="M422 150q0 99 70.5 169.5t169.5 70.5t169.5 -70.5t70.5 -169.5t-70.5 -169.5t-169.5 -70.5q-20 0 -39 3.5t-37 9t-34.5 14.5t-31.5 19.5t-28 24t-23.5 28t-19.5 31.5t-15 34.5t-9 36.5t-3 39zM212 210q-10 0 -20 -4.5t-17.5 -12.5t-7.5 -16v-238q0 -24 12 -44.5t33 -32.5
t45 -12h360q8 0 16 2q7 -1 14.5 -1.5t14.5 -0.5q124 0 212 88t88 212q0 75 -34 139.5t-93 106t-132 51.5l-229 274q-6 9 -18 18.5t-18 9.5q-13 6 -38 -28l-329 -394q-4 -5 -6.5 -11t-2.5 -12.5t2.5 -12.5t6.5 -11q2 -3 5.5 -5.5t7 -3.5t7 -1t7 1t7 3.5t5.5 5.5l327 391
l187 -224q-112 -14 -187 -98.5t-75 -198.5q0 -36 8.5 -71t24 -65.5t38 -56.5t49.5 -47h-179q-31 0 -53.5 22t-22.5 54v191v7v7v6q0 4 -1.5 5.5t-3 3.5t-4.5 3t-6 1zM557 180q-6 0 -11.5 -2.5t-9.5 -6.5t-6.5 -9.5t-2.5 -11.5q0 -8 4 -15t11 -11t15 -4h90v-90q0 -12 8.5 -21
t21 -9t21.5 9t9 21v90h90q6 0 11.5 2.5t9.5 6.5t6.5 9.5t2.5 11.5q0 8 -4 15t-11 11t-15 4h-90v90q0 12 -9 21t-21.5 9t-21 -9t-8.5 -21v-90h-90z" />
    <glyph glyph-name="uniE63C" unicode="&#xe63c;" 
d="M506 747q-46 -1 -90 -10.5t-83.5 -27t-75.5 -42.5t-65.5 -55.5t-53.5 -67t-40.5 -76.5t-25 -84t-7.5 -90q1 -91 37.5 -173.5t97.5 -141.5t144 -93t174 -33t173.5 37.5t141.5 97.5t93 144t33 174q-1 61 -18 118.5t-46.5 106.5t-71 89.5t-91 68.5t-107.5 43.5t-119 14.5z
M518 -117.5q-113 -1.5 -210 53t-154.5 150t-58.5 208.5q-1 49 9.5 96t30.5 88.5t48 78t64 65.5t76.5 50t87.5 32.5t95 12.5q113 2 210 -52.5t154.5 -150t59 -208.5t-53 -210t-150 -154.5t-208.5 -59zM619 512q-39 34 -108 34q-65 0 -105 -41q-12 -12 -20.5 -27.5t-13 -33
t-5.5 -38.5h24q1 25 9 46t22 37q33 38 88 38q14 0 26 -1.5t23 -5.5t21 -9t18 -13q33 -29 33 -73q0 -18 -9 -37.5t-27 -39.5q-35 -34 -65 -63q-9 -10 -16 -21t-11 -23q-8 -22 -9 -72h22q0 13 0.5 23.5t1.5 17.5q3 20 14 39q9 13 81 84q44 44 44 89q0 57 -38 90zM503 110
q-2 0 -4.5 -0.5t-4.5 -1.5t-4.5 -2t-4 -2.5t-3.5 -3t-3 -3.5l-2 -4l-2 -4q-1 -2 -1.5 -4.5t-0.5 -4.5q0 -13 9 -21.5t21 -8.5t21 8.5t9 21.5q0 8 -4 15t-11 11t-15 4z" />
    <glyph glyph-name="uniE63F" unicode="&#xe63f;" 
d="M931 684h-838q-38 0 -65 -27t-27 -65v-584q0 -38 27 -64.5t65 -26.5h33q5 -1 10 -1t10 1q2 -1 5 -1l6 1l367 -1h5h12h5h2h4q3 0 6 1h373q25 0 46.5 12t33.5 33.5t12 45.5v584q0 38 -27 65t-65 27zM556 -19h-15l-1 -1h-1l-392 1h-1h-1h-17q-4 0 -7.5 0.5t-6.5 0.5
q5 65 54 119q8 9 17 16.5t21 16t26.5 15t31 12t37 8.5t41.5 3q110 0 176 -71q49 -54 54 -118q-7 -2 -16 -2zM959 8q0 -7 -3.5 -13.5t-10 -10t-14.5 -3.5h-294q-2 38 -18 79q-19 47 -54 84q-85 92 -222.5 92t-221.5 -92q-37 -40 -56 -91v539q0 8 3.5 14.5t10 10t14.5 3.5h838
q8 0 14.5 -3.5t10 -10t3.5 -14.5v-584zM344.5 556q-62.5 0 -107 -44.5t-44.5 -107.5t44.5 -107.5t107 -44.5t107 44.5t44.5 107.5t-44.5 107.5t-107 44.5zM344.5 316q-23.5 0 -44 12t-32 32t-11.5 44q0 18 7 34t18.5 28t28 19t33.5 7q37 0 62.5 -26t25.5 -62
q0 -24 -11.5 -44t-32 -32t-44 -12zM577 557h318v-64h-318v64zM577 429h318v-64h-318v64zM577 301h193v-64h-193v64z" />
    <glyph glyph-name="uniE640" unicode="&#xe640;" 
d="M523 712q-57 0 -111 -15t-99.5 -42t-84 -65.5t-65.5 -84t-42 -99.5t-15 -111q0 -113 56 -209t152 -151.5t209 -55.5t209 55.5t152 151.5t56 209q0 85 -33.5 162t-89 133t-133 89t-161.5 33zM523 -77q-101 0 -187 50t-135.5 136t-49.5 186q0 76 29.5 145t79 118.5
t118.5 79t144.5 29.5t144.5 -29.5t119 -79t79.5 -118.5t29.5 -145q0 -100 -50 -186t-135.5 -136t-186.5 -50zM624 513l-67 -122q-26 -49 -32 -65h-1q-18 39 -99 187h-62l116 -198h-95v-44h111v-61h-111v-44h111v-89h55v89h108v44h-108v61h108v44h-92l116 198h-58z" />
    <glyph glyph-name="uniE645" unicode="&#xe645;" 
d="M1013 -158l-247 246q0 1 -3 2q-1 1 -2 1q102 121 102 278q0 117 -58 216.5t-157 157t-216.5 57.5t-216.5 -57.5t-157 -157t-58 -216.5t58 -216.5t157 -157t216 -57.5q157 0 277 100q1 0 2 -2t2 -3l246 -246q11 -11 27 -11t27.5 11.5t11.5 27.5t-11 27zM431 18
q-47 0 -92.5 13t-84 35.5t-70.5 54.5t-55 70.5t-35.5 84t-12.5 93.5q0 95 47 175.5t127.5 127.5t176 47t176 -47t127.5 -127.5t47 -175.5q0 -72 -28 -136.5t-75 -111.5t-111.5 -75t-136.5 -28z" />
    <glyph glyph-name="uniE64B" unicode="&#xe64b;" 
d="M512 682q-121 0 -224 -50t-163 -135.5t-60 -187.5q0 -76 34.5 -144t96.5 -119l-24 -128l107 73q34 -17 71.5 -29t78.5 -18.5t83 -6.5q121 0 224 49.5t163 135.5t60 187.5t-60 187t-163 135.5t-224 50zM512 -33q-119 0 -219 51l-16 8l-62 -43l14 75l-14 11q-58 48 -89 110
t-31 130q0 93 56 172t152 125t209 46t209 -46t152 -125t56 -172q0 -69 -33 -132.5t-89 -109.5t-133 -73t-162 -27zM318 330q-6 0 -11.5 -2.5t-9.5 -6.5t-6 -9.5t-2 -11.5q0 -12 8.5 -21t20.5 -9q8 0 15 4t11 11t4 15t-4 15t-11 11t-15 4zM512 330q-6 0 -11.5 -2.5t-9.5 -6.5
t-6.5 -9.5t-2.5 -11.5q0 -12 9 -21t21 -9t21 9t9 21t-9 21t-21 9zM705.5 330q-12.5 0 -21 -9t-8.5 -21q0 -8 4 -15t11 -11t15 -4q12 0 20.5 9t8.5 21t-8.5 21t-21 9z" />
    <glyph glyph-name="uniE654" unicode="&#xe654;" 
d="M515 712q-112 0 -206 -55t-149 -149.5t-55 -205.5t55 -205.5t149 -149.5t205.5 -55t206 55t149 149.5t54.5 205.5q0 56 -14.5 109t-41 98t-64.5 82.5t-83 64t-98 41.5t-108 15zM803 62q-28 12 -84 31.5t-96 31.5q-4 1 -5 4t-1 17q0 11 3.5 22t9.5 24q2 3 3.5 6.5t2.5 7.5
l4 10l2 8q2 5 3 10l2 10l2 10q7 9 14.5 24.5t11.5 40.5q3 15 3.5 26t-0.5 16.5t-3 11.5h-1l-1 4q-4 19 6 76q2 12 1 27.5t-9 36t-21 37.5q-10 14 -23.5 24.5t-38 20t-53.5 10.5h-35q-15 -1 -28.5 -3.5t-24.5 -7t-20.5 -9.5t-17 -11t-13 -12t-10.5 -12q-20 -25 -26.5 -53.5
t-3.5 -47.5q11 -57 6 -76q0 -1 -1 -4q-8 -20 -1 -54q9 -44 27 -65q2 -16 7.5 -33t10.5 -29q4 -9 6 -20t2 -27v-11q0 -4 -1 -6t-1.5 -2.5t-2.5 -1.5q-105 -31 -180 -64q-89 105 -89 242q0 76 30 145.5t80 120t119.5 80t146.5 29.5q61 0 118 -19t103 -53.5t81 -80.5t54 -103.5
t19 -118.5q0 -135 -87 -240z" />
    <glyph glyph-name="uniE656" unicode="&#xe656;" 
d="M514 711q-112 0 -206 -54.5t-149 -149t-55 -206t55 -205.5t149 -149t205.5 -55t206 55t149 149t54.5 206q0 42 -8 82.5t-23.5 77t-38 69.5t-50 60.5t-60.5 50t-69.5 38t-77 23.5t-82.5 8zM766 24q-26 11 -71 27t-70.5 25.5t-25.5 11.5v35q47 10 77 10q18 0 28 1.5t23 9.5
t26 23q-25 43 -47 122t-22 127q-3 44 -26 81t-61.5 58.5t-82.5 21.5q-68 0 -117.5 -47t-52.5 -114h-1q0 -24 -6 -58.5t-16 -69.5t-22 -67.5t-24 -53.5q12 -15 25 -23t23.5 -9.5t28.5 -1.5q29 0 76 -8v-37q0 -2 -26 -11.5t-71 -24.5t-72 -26q-37 35 -64 78t-42 93.5
t-15 104.5q0 76 30 145.5t80 120t119.5 80t146 29.5t146 -29.5t120 -80t80 -120t29.5 -145.5q0 -81 -32.5 -153t-90.5 -125z" />
    <glyph glyph-name="uniE663" unicode="&#xe663;" 
d="M399 359l27 23q-38 50 -86 92l-24 -21q27 -25 43.5 -43.5t39.5 -50.5zM417 102q-7 8 -11 11v120q0 34 2 52q-17 -2 -39 -2h-27q-15 0 -23.5 0.5t-16.5 2.5v-34q14 2 38 2h34v-137q-14 -5 -34.5 -21t-48.5 -44l23 -27q14 19 27 31q31 30 42 30q8 0 15 -7q16 -18 18 -20
q15 -12 34 -18q35 -15 135 -15q109 0 180 4q4 19 13 38q-69 -10 -181 -10q-90 0 -122 8t-58 36zM753 251l-27 23q-19 -25 -78 -65q-28 21 -62 46l-20 -21q86 -63 163 -142l23 25q-24 23 -38.5 36.5t-42.5 36.5q46 32 67 49q7 6 9 7zM459 124l12 -29q9 3 20 6q18 6 27.5 9
t12.5 4q51 19 72 27l-1 31q-20 -8 -29 -11.5t-37 -13.5q-2 0 -4 -1l-6 -2q-2 -1 -5 -2t-6.5 -2.5t-7.5 -2.5v133h173q24 0 40 -1q-2 14 -2 46v104q0 31 3 49q-16 -2 -46 -2h-157q-31 0 -45 2q2 -10 2.5 -21.5t0.5 -25.5v-272q-2 -19 -17 -25zM507 437h180v-53h-180v53z
M507 355h180v-56h-180v56zM776 611v6q0 22 -11 40.5t-29.5 29.5t-40.5 11q-33 0 -56.5 -24t-23.5 -57v-6h-180v6q0 33 -23.5 57t-57.5 24q-13 0 -25 -4.5t-22 -11.5t-17.5 -17t-11.5 -22.5t-4 -25.5v-6h-138v-708h92v51h-41v606h138v50v1v6q0 12 8.5 20.5t20.5 8.5
t20.5 -8.5t8.5 -20.5v-6v-1v-50h283v50v1v6q0 12 8.5 20.5t20.5 8.5t20.5 -8.5t8.5 -20.5v-6v-1v-50h139v-606h-41v-51h92v708h-138z" />
    <glyph glyph-name="uniE664" unicode="&#xe664;" horiz-adv-x="1029" 
d="M950 485q22 -17 38.5 -35t16.5 -35q0 -20 -15 -32t-37 -28q-32 -24 -68.5 -51t-69 -51t-57.5 -42t-35 -24q-34 -21 -52.5 -15t-23.5 22v119h-4q-78 0 -136 -17t-102 -51.5t-77 -85t-59 -116.5q-3 2 -6 11q-2 8 -3.5 23.5t-1.5 42.5q0 86 26 160.5t74.5 130.5t117.5 87.5
t155 30.5q5 0 8.5 -0.5t8.5 -0.5l-1 107q2 29 23.5 42t54.5 -11q10 -8 37 -29.5t60.5 -48t68.5 -54.5t59 -49zM780 101q33 0 47 -19t14 -55v-133q0 -52 -29.5 -85.5t-78.5 -32.5l-612 4q-23 0 -44.5 9.5t-38.5 26t-27.5 40t-10.5 53.5v592q0 50 30 83.5t84 32.5l208 -2
q11 0 23.5 -2.5t22 -9.5t16 -19t6.5 -30t-7 -29.5t-18.5 -19t-25.5 -11.5t-27 -4l-98 1q-40 0 -62.5 -25t-22.5 -61v-405q0 -22 7.5 -39t20.5 -29t28.5 -18.5t32.5 -6.5l417 -4q35 -1 56 23.5t21 62.5v44q0 31 19 49.5t49 18.5z" />
    <glyph glyph-name="uniE673" unicode="&#xe673;" horiz-adv-x="1026" 
d="M530 807q-80 0 -155.5 -25t-136 -70.5t-106.5 -106.5t-70.5 -136t-24.5 -156q0 -120 56 -228l-55 -182q-6 -21 9.5 -36t36.5 -9l166 50q127 -88 280 -88q101 0 192 39t157.5 105t105.5 157.5t39 192t-39 192t-105.5 157.5t-157.5 105t-192 39zM530 -107q-139 0 -251 84
q-15 11 -33 6l-118 -36l39 132q2 7 1.5 14.5t-4.5 13.5q-54 96 -54 206q0 114 56 211t153 153.5t211 56.5t211 -56.5t153.5 -153.5t56.5 -211t-56.5 -210.5t-153.5 -153t-211 -56.5zM348 313zM292 313q0 9 3 17.5t8 15.5t12 12t15.5 8t17.5 3q7 0 14.5 -2t13.5 -5.5t11 -9
t8.5 -11.5t5.5 -13t2 -15q0 -11 -4.5 -21t-11.5 -17.5t-17.5 -12t-21.5 -4.5q-9 0 -17.5 2.5t-15.5 8t-12 12t-8 15t-3 17.5zM530 313zM475 313q0 15 7.5 28t20 20.5t27.5 7.5t28 -7.5t20.5 -20.5t7.5 -28q0 -23 -16.5 -39t-39.5 -16t-39 16t-16 39zM713 313zM657 313
q0 15 7.5 28t20.5 20.5t28 7.5q23 0 39 -16.5t16 -39.5q0 -35 -32 -50q-12 -5 -23 -5q-9 0 -17.5 2.5t-15.5 8t-12 12t-8 15t-3 17.5z" />
    <glyph glyph-name="uniE675" unicode="&#xe675;" 
d="M483 495q0 14 9 23t23 9q13 0 22.5 -9t9.5 -23v-485q0 -9 -4.5 -16t-12 -11.5t-15.5 -4.5q-14 0 -23 9.5t-9 22.5v485zM332 495q0 14 9.5 23t22.5 9t22.5 -9t9.5 -23v-485q0 -13 -9.5 -22.5t-22.5 -9.5t-22.5 9.5t-9.5 22.5v485zM633 495q0 5 1.5 9t3.5 7.5t5 6.5t6.5 5
t7.5 3t8 1q14 0 23 -9t9 -23v-485q0 -9 -4 -16t-11.5 -11.5t-16.5 -4.5q-13 0 -22.5 9.5t-9.5 22.5v485zM899 653h-126h-46v40q0 23 -18.5 39.5t-45.5 16.5h-296q-27 0 -45.5 -16.5t-18.5 -39.5v-40h-46h-132q-13 0 -22.5 -9.5t-9.5 -23t9.5 -22.5t22.5 -9h68v-675
q0 -26 18.5 -44.5t45.5 -18.5h516q17 0 32 8.5t23.5 23t8.5 31.5v675h62q13 0 22.5 9t9.5 22.5t-9.5 23t-22.5 9.5zM367 685h296v-32h-296v32zM739 -85q-414 -1 -449 -1q-16 0 -24 9t-9 18v9v608q0 16 7.5 24t15.5 7h8h79h296h72h5q2 0 8.5 -1.5t11.5 -4.5t9 -9.5t4 -15.5
v-313v-298q0 -14 -8.5 -22t-16.5 -9z" />
    <glyph glyph-name="uniE698" unicode="&#xe698;" 
d="M512 727q-87 0 -166 -34t-136.5 -91t-91 -136t-33.5 -166q0 -116 57 -214.5t155.5 -155.5t214 -57t214 57t155.5 155.5t57 214.5t-57 214.5t-155.5 155.5t-213.5 57zM512 -93q-107 0 -197.5 53t-143 143.5t-52.5 196.5q0 53 14 104t39.5 94t61.5 79.5t79 61.5t94 39.5
t105 14.5q106 0 196.5 -53t143 -143.5t52.5 -196.5q0 -154 -105 -267q-102 -110 -251 -124q-19 -2 -36 -2zM510 524q-64 0 -99.5 -37t-36.5 -102h38q-1 48 24 77.5t72 29.5q36 0 61 -22.5t25 -58.5q0 -6 -1 -12.5t-3 -12.5t-4.5 -11.5t-6 -11t-7.5 -10.5t-8 -9.5t-9 -9.5
q-35 -32 -47 -54.5t-14 -64.5h39q1 39 6.5 51t39.5 46q26 24 39 47t13 54q0 51 -34.5 81t-86.5 30zM512 112zM477 112q0 7 3 13.5t7.5 11t11 7t13 2.5t13 -2.5t11 -7t7.5 -11t3 -13.5q0 -24 -23 -32l-11 -2q-10 0 -17.5 4.5t-12.5 12.5t-5 17z" />
    <glyph glyph-name="uniE6A3" unicode="&#xe6a3;" 
d="M480 748q-98 0 -186.5 -38t-153 -102.5t-102.5 -153t-38 -186.5t38 -186.5t102.5 -153t153 -102.5t186.5 -38t186.5 38t153 102.5t102.5 153t38 186.5t-38 186.5t-102.5 153t-153 102.5t-186.5 38zM480 -148q-172 0 -294 122t-122 294t122 294t294 122t294 -122t122 -294
t-122 -294t-294 -122zM714 419l-297 -298l-170 170q-10 10 -23 10t-22.5 -9.5t-9.5 -22.5t9 -23l193 -193q2 -2 4 -3.5t4.5 -2.5t5 -1.5t4.5 -1t5 -0.5q13 0 22 9l321 320q3 3 5 7t3 8t1 8t-1 8t-3 8t-5 7q-10 9 -23 9t-23 -9z" />
    <glyph glyph-name="uniE714" unicode="&#xe714;" 
d="M895 383l1 244v4l-2 4q0 2 -1.5 4t-3.5 4t-4.5 3.5t-5 2t-5.5 0.5h-724q-4 0 -8 -1.5t-7 -4.5t-5 -7.5t-2 -8.5v-244v-3v-3v-2q1 -56 40 -98v-304q0 -4 1.5 -8.5t4.5 -7.5t7 -4.5t9 -1.5h645q9 0 15.5 6.5t6.5 15.5v306q19 19 29 44t10 52zM173 386v218h678v-222v-4v-3
q0 -40 -29 -69t-69 -29q-27 0 -49.5 13t-35.5 36t-13 49v6q1 9 -6 17q-3 3 -7.5 5t-9.5 2q-9 0 -16 -7t-6 -17v-6q0 -40 -29 -69t-69.5 -29t-69 29t-28.5 69v6q1 9 -6 17q-7 7 -17 7t-16 -7q-7 -7 -6 -17v-3v-3q0 -20 -8 -38t-21 -31t-31 -21t-38 -8q-41 0 -69.5 29
t-28.5 69v7v4zM212 -4v249q10 -4 19 -7t19.5 -4.5t20.5 -1.5q37 0 69 18t51 48q7 -9 14.5 -18t17 -16.5t20 -13t21.5 -9.5t23 -6.5t25 -2.5q37 0 69 18t51 49q13 -20 31.5 -35t41.5 -23.5t48 -8.5q15 0 30 3.5t30 10.5v-250h-601z" />
    <glyph glyph-name="uniE74F" unicode="&#xe74f;" 
d="M427 385h170v-85h-170v85zM981 727h-42v-171h-256v171h-342v-171h-256v171h-42q-18 0 -30.5 -12.5t-12.5 -30.5v-853q0 -18 12.5 -30.5t30.5 -12.5h938q18 0 30.5 12.5t12.5 30.5v853q0 12 -5.5 21.5t-15.5 15.5t-22 6zM939 -127h-854v598h854v-598zM427 44h170v-85h-170
v85zM768 812h85v-171h-85v171zM171 44h170v-85h-170v85zM171 812h85v-171h-85v171zM683 385h170v-85h-170v85zM427 215h170v-86h-170v86zM171 215h170v-86h-170v86zM683 215h170v-86h-170v86zM683 44h170v-85h-170v85zM171 385h170v-85h-170v85z" />
    <glyph glyph-name="uniE77D" unicode="&#xe77d;" 
d="M250 30l202 86l-124 122zM848 505l-127 131l-370 -365l133 -137zM953 662q-34 37 -73 66q-17 12 -34 12t-26 -6l-8 -6l-66 -66l134 -133q56 57 73 76q4 4 5.5 9.5t2 10.5t0 10.5t-2 10t-2.5 8.5t-2 6zM811 -38q0 -7 -5 -12t-12 -5h-622q-7 0 -12 5t-5 12v617q0 7 5 12
t12 5h396l82 87h-563q-5 0 -9.5 -2.5t-7.5 -7t-3 -10.5v-786q0 -5 3 -9.5t7.5 -7.5t9.5 -3h792q8 0 14 6t6 14v562l-88 -82v-395z" />
    <glyph glyph-name="uniE834" unicode="&#xe834;" 
d="M511 749q-73 0 -140.5 -23t-122.5 -64.5t-96 -96.5t-63.5 -124t-22.5 -142t22.5 -141.5t63.5 -124t96 -97t122.5 -64t140.5 -22.5q90 0 172.5 35.5t142 95.5t94.5 143.5t35 175t-35 174.5t-94.5 143.5t-142 96t-172.5 35.5zM803 3q-57 -58 -131 -90q-77 -33 -161 -33
t-161 33q-37 16 -70 38.5t-62 51.5q-11 11 -21.5 23.5t-20 25.5t-18 26.5t-15.5 28t-14 29.5q-5 13 -9.5 26t-8 26.5t-6.5 27t-4.5 27.5t-2.5 28t-1 28q0 86 32 163q32 76 89 134t132 89q19 8 38.5 14.5t39.5 10.5t41 6t42 2q42 0 82 -8t79 -25q37 -16 70 -38.5t61.5 -51
t50.5 -62t38 -71.5q32 -77 32 -163q0 -42 -8 -83t-24 -80q-10 -25 -23.5 -48t-30 -44.5t-35.5 -40.5zM791 77v1q-22 115 -119 181q-20 14 -41.5 24t-44.5 16q11 7 20.5 14.5t18 16.5t16 19t13 21.5t9.5 23.5t6 25t2 26q0 70 -49 119t-118.5 49t-119 -49t-49.5 -119
q0 -48 25 -88t67 -61q-17 -5 -33 -12.5t-30.5 -16.5t-28.5 -19.5t-26 -23.5q-30 -30 -49.5 -67.5t-27.5 -78.5v-4q0 -6 4.5 -10.5t10.5 -4.5t10 3t5 9q14 76 70 132.5t133 70.5q15 3 31 4h7h7h8q12 0 24 -1.5t24 -4t23.5 -6t22.5 -8.5t22 -11t21 -13q42 -29 69.5 -70.5
t36.5 -91.5v-1q3 -12 15 -12q6 0 10.5 4.5t4.5 11.5v2zM366 445q0 19 5 37t14 33t21.5 27.5t27.5 21.5t33 14t36 5q57 0 97 -40.5t40 -97.5q0 -53 -35.5 -92t-87.5 -44h-22q-54 3 -91.5 42.5t-37.5 93.5z" />
    <glyph glyph-name="uF0006" unicode="&#xf0006;" 
d="M772 726v-48q10 -16 10 -35q0 -18 -9 -33t-24 -24t-33 -9q-28 0 -47.5 19.5t-19.5 46.5q0 19 10 35v48h-90v-48q10 -16 10 -35q0 -27 -19.5 -46.5t-46.5 -19.5q-18 0 -33.5 9t-24.5 24t-9 33q0 19 10 35v48h-90v-48q5 -8 7.5 -16.5t2.5 -18.5q0 -27 -19.5 -46.5
t-47 -19.5t-47 19.5t-19.5 46.5q0 19 10 35v48h-61v-658l15 -16l197 -196h428v870h-60zM779 -90h-305q-16 0 -27 10.5t-16 26.5t-6.5 38t-0.5 39.5t3.5 37.5t3.5 27t2 10q-4 -1 -11 -2l-26 -4q-19 -3 -36.5 -4.5t-39 -0.5t-37 6t-26.5 16.5t-11 28.5v387h533v-616zM732 357
h-427v-67h427v67zM732 468h-427v-66h427v66zM732 245h-427v-66h427v66zM716 604q9 0 16.5 4.5t12 12.5t4.5 17v92q0 9 -4.5 16.5t-12 12t-16.5 4.5q-14 0 -24 -9.5t-10 -23.5v-92q0 -14 10 -24t24 -10zM310 604q14 0 23.5 10t9.5 24v92q0 24 -22 31l-11 2q-9 0 -16.5 -4.5
t-12 -12t-4.5 -16.5v-92q0 -7 2.5 -13t7 -10.5t10.5 -7.5t13 -3zM513 604q14 0 23.5 10t9.5 24v92q0 7 -2.5 13t-7 10.5t-10.5 7t-13 2.5q-14 0 -23.5 -9.5t-9.5 -23.5v-92q0 -14 9.5 -24t23.5 -10z" />
    <glyph glyph-name="uF0037" unicode="&#xf0037;" 
d="M511 750q-91 0 -174 -35.5t-143 -95.5t-95.5 -143t-35.5 -174t35.5 -174t95.5 -143t143 -95.5t174 -35.5t174 35.5t143 95.5t95.5 143t35.5 174t-35.5 174t-95.5 143t-143 95.5t-174 35.5zM511 -82q-105 0 -193 51t-139.5 139.5t-51.5 192.5q0 52 14 102t38.5 92t60 77.5
t77.5 60t92 38.5t102 14q104 0 192.5 -51.5t139.5 -140t51 -192.5q0 -151 -103 -262q-102 -109 -250 -120q-15 -1 -30 -1zM543 526h-65v-192h-191v-64h191v-192h65v192h192v64h-192v192z" />
    <glyph glyph-name="uF003F" unicode="&#xf003f;" 
d="M883 41q4 -14 7 -36t3 -44.5t-3.5 -42.5t-10.5 -30q-5 -7 -26 -14q-11 -3 -24 -6t-29 -6q-31 -5 -71 -11q-39 -5 -77 -8l-26 -2q-13 -1 -25.5 -2t-24.5 -1q-9 -1 -17.5 -1t-16.5 -0.5t-16 -0.5h-14q-28 0 -64 2t-75 5q-19 2 -38 3.5t-38 3.5q-7 1 -14.5 2t-14.5 2l-14 2
q-7 1 -13.5 2t-12.5 2q-31 5 -53 9.5t-27 9.5q-9 7 -14.5 45t4.5 99q5 35 28 53.5t53 29t63 18.5q17 4 31.5 10.5t26.5 14.5q19 12 30 23t15.5 22.5t4.5 23.5t-1 27q-1 12 -4.5 20.5t-10.5 14.5q-13 12 -28 26q-4 3 -7.5 7.5t-6.5 9.5l-10 24q-6 13 -10 30q0 1 -1 2l-2 2
l-3 3q-1 2 -3 5.5t-4 8t-4.5 10.5t-5 14.5t-4 15.5t-2.5 14q-1 12 1 22q1 11 5 19q0 18 1 35.5t3 35.5q4 30 13 64.5t30 61.5q18 26 39.5 43t44.5 26q12 4 23.5 7.5t23.5 4.5q8 2 15 3h16q7 1 14 1q23 -2 38 -6q7 -1 13 -3.5t11 -5t9 -5.5t7 -7l14 -14h19q9 0 18 -2
q4 -2 8.5 -4t8.5 -6q9 -7 19 -20q24 -31 35 -67t16 -69q2 -9 3 -18.5t1.5 -18.5t1 -18.5t1.5 -18.5q1 -3 1.5 -6t1.5 -6v-4v-2q0 -2 0.5 -4t0.5 -4v-4q1 -10 -1 -25q-1 -5 -1.5 -9.5t-1.5 -8.5t-2 -7.5t-2 -6.5q-2 -6 -4 -10.5t-5 -7.5q-5 -7 -11 -10q-4 -17 -9 -30
q-3 -6 -5.5 -12t-5.5 -12q-6 -11 -14 -17q-17 -15 -28.5 -24.5t-15.5 -32.5q-3 -15 -2 -29q1 -5 2 -9.5t2.5 -9.5t3.5 -10q7 -15 21 -28q8 -7 18.5 -12.5t23.5 -10.5q23 -10 51.5 -17.5t54.5 -17.5q8 -3 16 -6.5t15.5 -8t14.5 -10.5q21 -15 29 -39zM555 74q3 6 0 13l-8 13
q-2 3 -5 6.5t-7 6.5h-47q-7 -7 -11 -13q-2 -3 -3.5 -5.5t-3 -5.5t-1.5 -6t2 -6q3 -7 6 -13t6 -11.5t5.5 -9.5t5.5 -7q-1 -5 -2.5 -11.5t-3.5 -14.5q-4 -17 -7.5 -35t-6 -33.5t-2.5 -23.5q0 -3 1 -6t3.5 -6.5t5 -7.5t5.5 -7.5t6.5 -7t6.5 -5.5q7 -5 12 -5t12 5q4 2 7 5l7 7
q6 6 11 13.5t5 13.5t-3 20q-3 15 -7 34q-4 18 -8 35.5t-7 27.5q6 5 12 14q3 5 6.5 11.5t7.5 14.5zM555 74z" />
    <glyph glyph-name="uF0077" unicode="&#xf0077;" 
d="M750 619l-13 13l-353 -354l117 -117l327 327l7 -6l28 27l-111 111zM933 592l-118 117l-39 -39l117 -117zM345 239l-40 -157l157 39zM846 246v-217q0 -8 -3 -16.5t-8 -15t-11.5 -11.5t-15 -8t-17.5 -3h-541q-22 0 -38 16t-16 38v542q0 14 7 26.5t19.5 20t27.5 7.5h325v108
h-325q-67 0 -114.5 -47.5t-47.5 -114.5v-542q0 -67 47.5 -114.5t114.5 -47.5h541q68 0 115.5 47.5t47.5 114.5v217h-108z" />
    <glyph glyph-name="uF007D" unicode="&#xf007d;" 
d="M935 -144h-122q-8 0 -14 6t-6 14q0 6 2.5 10.5t7.5 7t10 2.5h102v102q0 8 6 14t14 6t14 -6t6 -14v-122q0 -3 -1 -6t-3 -5.5t-4.5 -4.5t-5.5 -3t-6 -1zM935 99q-8 0 -14 6t-6 14v122q0 6 2.5 10.5t7 7t10.5 2.5q16 -4 20 -20v-122q0 -2 -0.5 -4t-1.5 -4t-2.5 -4t-3 -3.5
t-3.5 -2.5t-4.5 -1.5t-4.5 -0.5zM935 343q-8 0 -14 6t-6 14v122q0 8 6 14t14 6q5 0 10 -3t7.5 -7.5t2.5 -9.5v-122q0 -8 -6 -14t-14 -6zM935 586q-6 0 -10.5 2.5t-7 7.5t-2.5 10v102h-102q-5 0 -10 2.5t-7.5 7.5t-2.5 10q0 3 1 6.5t3 6t4.5 4t5.5 2.5t6 1h122q3 0 5.5 -0.5
t4.5 -1.5l4 -4q2 -1 3.5 -3.5t2 -5t0.5 -5.5v-122q0 -8 -6 -14t-14 -6zM692 -144h-122q-9 0 -14.5 6t-5.5 14t5.5 14t14.5 6h122q8 0 14 -6t6 -14t-6 -14t-14 -6zM692 708h-122q-9 0 -14.5 6t-5.5 14q0 6 2.5 10.5t7 7t10.5 2.5h122q5 0 9.5 -2.5t7.5 -7t3 -10t-3 -10.5
t-7.5 -7.5t-9.5 -2.5zM669 343q16 0 28 -12t12 -29t-12 -29t-28 -12h-122v-121q0 -17 -12 -29t-28.5 -12t-28.5 12t-12 29v121h-122q-17 0 -28.5 12t-11.5 29q0 11 5 20.5t14.5 15t20.5 5.5h122v121q0 11 5.5 20.5t14.5 15t20 5.5q9 0 16.5 -3.5t13 -8.5t8.5 -12.5t3 -16.5
v-121h122zM448 708h-122q-8 0 -14 6t-6 14t6 14t14 6h122q6 0 10.5 -2.5t7 -7t2.5 -10.5q0 -3 -0.5 -5.5t-1.5 -4.5l-4 -4q-1 -2 -3.5 -3.5t-5 -2t-5.5 -0.5zM205 -144h-122q-3 0 -5.5 0.5t-5 2t-4.5 3.5l-2 4q-2 2 -2.5 4.5t-0.5 5.5v122q0 8 6 14t14 6t14 -6t6 -14v-102
h102q8 0 14 -6t6 -14t-6 -14t-14 -6zM205 708h-102v-102q0 -8 -6 -14t-14 -6t-14 6t-6 14v122q0 6 2.5 10.5t7 7t10.5 2.5h122q5 0 9.5 -2.5t7.5 -7t3 -10.5q0 -8 -6 -14t-14 -6zM83 505q3 0 6 -1t5.5 -3t4.5 -4.5t3 -5.5t1 -6v-122q0 -8 -6 -14t-14 -6q-3 0 -6.5 1t-6 2.5
t-4 4t-2.5 6t-1 6.5v122q0 8 6 14t14 6zM83 261q8 0 14 -5.5t6 -14.5v-122q0 -8 -6 -14t-14 -6q-6 0 -10.5 3t-7 7.5t-2.5 9.5v122q0 9 6 14.5t14 5.5zM326 -104h122q8 0 14 -6t6 -14q0 -3 -1 -6t-2.5 -5.5t-4 -4.5t-6 -3t-6.5 -1h-122q-8 0 -14 6t-6 14q0 4 1.5 8t4.5 6.5
t6.5 4t7.5 1.5z" />
    <glyph glyph-name="uF00B2" unicode="&#xf00b2;" horiz-adv-x="1028" 
d="M34 169q-32 35 -36.5 63.5t24.5 58.5q4 4 13.5 12t19.5 17t19 17t14 12q26 24 51.5 20.5t44.5 -24.5q10 -11 27 -28t34.5 -35.5t33.5 -35t26 -26.5q20 -20 47 -15.5t51 27.5q22 23 54.5 57t70.5 73t79 82t80 83.5t73.5 76.5t61.5 63q14 14 29 26.5t30.5 19t31 5.5
t32.5 -11q2 -3 11.5 -11.5t20.5 -18.5l21 -21l11 -12q14 -14 15.5 -30t-5 -32t-17 -30t-20.5 -25q-32 -31 -79 -79t-100.5 -102.5t-111 -113t-110 -112.5t-98 -101t-76.5 -76q-12 -13 -31 -19.5t-39.5 -7t-40.5 4.5t-33 18q-28 24 -59 55t-62 62.5t-58.5 60.5t-49.5 52z" />
    <glyph glyph-name="uF00B3" unicode="&#xf00b3;" 
d="M887 66q29 -31 43 -56.5t-4 -58.5q-4 -6 -11.5 -15t-15 -17t-15 -14.5t-13.5 -10.5q-25 -15 -60 -8t-62 35l-43 43l-58 57l-67 68l-74 74l-131 -131q-61 -61 -98 -100q-39 -39 -77.5 -48t-68.5 18l-7 7l-11 11l-12 11q-6 7 -7 9q-11 14 -13 29t2.5 29t14 27.5t20.5 24.5
q9 8 33 31l55 57q34 33 75.5 74t86.5 86q-50 49 -94.5 93t-79.5 79t-57.5 57t-27.5 27q-27 27 -27.5 53t17.5 52q9 11 24 24.5t21 17.5q31 21 55.5 18.5t49.5 -28.5l32 -32q23 -23 58 -57t78.5 -76.5t90.5 -88.5q39 39 76.5 76t69.5 69l58 58q26 26 44 43q24 24 53 31.5
t55 -13.5q1 -1 7 -5t11.5 -9t10.5 -9.5t7 -5.5q28 -27 27.5 -58t-27.5 -58q-18 -18 -45.5 -46t-60.5 -60.5t-70 -69.5l-78 -78q38 -37 74.5 -72t67.5 -66t56 -56.5t42 -41.5z" />
    <glyph glyph-name="uF00D9" unicode="&#xf00d9;" 
d="M513 747q-72 0 -140.5 -23t-123.5 -64t-96 -96t-64 -123.5t-23 -140.5q0 -91 35.5 -174t95.5 -142.5t142.5 -95t173.5 -35.5t174 35.5t142.5 95t95 142.5t35.5 174t-35.5 173.5t-95 142.5t-142.5 95.5t-174 35.5zM513 -88q-105 0 -194 52t-141 141t-52 194.5t52 194.5
t141 141t194 52q46 0 89.5 -10t81.5 -29t71.5 -45.5t60 -60.5t45.5 -72t29.5 -81.5t10.5 -88.5q0 -153 -105 -265q-102 -109 -251 -121q-16 -2 -32 -2zM606 182q-3 0 -10 -6.5t-15.5 -15.5t-17.5 -18.5t-18 -16t-16 -6.5q-9 0 -9 11q0 2 0.5 6t1.5 7t3 8t2.5 6.5l2.5 7.5
l3 6l56 144q15 35 9 55.5t-18.5 28t-31.5 7.5q-62 0 -116 -50q-9 -8 -22 -29.5t-13 -31.5q0 -3 3 -6.5t7 -3.5t12.5 11.5t17 25t20 24.5t20.5 11q6 0 8.5 -5t-0.5 -15l-54 -130l-5 -10q-27 -52 -27 -81q0 -14 6 -27.5t17 -22t24 -8.5q36 0 77.5 24t66.5 50.5t25 38.5
q0 2 -1 4.5t-2 3.5l-4 2q-1 1 -2 1zM590 542q-25 0 -44 -17.5t-19 -41.5q0 -23 14.5 -37t37.5 -14q27 0 46 17t19 43q0 37 -36 47q-9 3 -18 3z" />
    <glyph glyph-name="uF0131" unicode="&#xf0131;" 
d="M949 614q7 -8 8 -18.5t1 -16.5v-550q0 -48 -32.5 -81t-86.5 -33h-592q-56 0 -88 27.5t-32 84.5v599q0 55 32 88t88 33h543q10 0 20 -2.5t14 -6.5zM768 651q-2 32 -34 32h-446q-16 1 -25 -8t-9 -22v-167q0 -10 4.5 -20.5t13 -19.5t19 -14.5t22.5 -5.5h389q28 0 47 16.5
t19 48.5v160zM768 190q0 44 -45 45h-423q-24 0 -35 -12t-11 -33v-149h514v149z" />
    <glyph glyph-name="uF0153" unicode="&#xf0153;" 
d="M508 760q95 0 179 -36.5t146 -98.5t98.5 -145.5t36.5 -178.5t-36.5 -179t-98.5 -146t-146 -98.5t-179 -36.5t-178.5 36.5t-145.5 98.5t-98.5 146t-36.5 179t36.5 178.5t98.5 145.5t145.5 98.5t178.5 36.5zM736 239q31 0 55.5 15.5t24.5 47.5q0 31 -24.5 45.5t-55.5 14.5
h-452q-31 0 -56.5 -14.5t-25.5 -45.5q0 -32 25.5 -47.5t56.5 -15.5h452z" />
    <glyph glyph-name="uF0154" unicode="&#xf0154;" 
d="M514 750q93 0 175.5 -35.5t144 -97t97 -144t35.5 -175.5q0 -94 -35.5 -176t-97 -143.5t-144 -97t-175.5 -35.5q-94 0 -176.5 35.5t-144 97t-97 143.5t-35.5 176q0 93 35.5 175.5t97 144t144 97t176.5 35.5zM772 235q27 0 45.5 19t18.5 46t-18.5 45t-45.5 18h-192v193
q0 27 -19 46t-46 19t-45 -19t-18 -46v-193h-193q-27 0 -45 -18t-18 -45t18 -46t45 -19h193v-191q0 -27 18 -46t45 -19t46 19t19 46v191h192z" />
    <glyph glyph-name="uF0155" unicode="&#xf0155;" 
d="M827.5 616.5q65.5 -65.5 97.5 -147.5t32 -168t-32 -168t-97.5 -147.5t-147.5 -98t-168 -32.5t-168.5 32.5t-148 98t-98 147.5t-32.5 168t32.5 168t98 147.5t148 97.5t168.5 32t168 -32t147.5 -97.5zM720.5 96.5q21.5 21.5 19 49t-23.5 49.5l-108 107l108 108
q21 21 23.5 48.5t-19 49t-51.5 21.5t-52 -21l-107 -107l-104 105q-22 20 -49.5 22.5t-49.5 -17.5q-21 -22 -21 -52.5t21 -52.5l105 -104l-105 -104q-21 -22 -21 -52t21.5 -51.5t49 -19t49.5 23.5l104 105l107 -108q22 -21 52 -21t51.5 21.5z" />
    <glyph glyph-name="uF0156" unicode="&#xf0156;" 
d="M514 753q93 0 174.5 -35.5t142.5 -97t96.5 -143.5t35.5 -175t-35.5 -175.5t-96.5 -144t-142.5 -97t-174.5 -35.5t-175 35.5t-143 97t-96 144t-35 175.5t35 175t96 143.5t143 97t175 35.5zM796 388q18 18 19 45.5t-17.5 46t-45 18t-44.5 -19.5l-289 -289l-100 99
q-18 18 -44.5 18.5t-45 -18t-19 -43.5t17.5 -43l143 -144q18 -18 48 -17.5t48 18.5l-4 -4z" />
    <glyph glyph-name="uF016D" unicode="&#xf016d;" 
d="M286 579q-15 15 -22 33t-7 37t7 37t22 32q28 30 68 30t68 -30l379 -381q14 -13 20 -31t5 -38.5t-9 -40.5t-22 -34l-373 -375q-28 -30 -68 -30t-68 30q-15 14 -22 32t-7 36.5t7 37t22 32.5l308 311z" />
    <glyph glyph-name="uF016E" unicode="&#xf016e;" 
d="M800 580l-308 -312l308 -312q14 -14 21 -32.5t7 -37t-7 -36.5t-21 -32q-29 -30 -68.5 -30t-68.5 30l-372 375q-15 14 -23 34t-9 40.5t5 39t21 31.5l378 381q29 29 68.5 29t68.5 -29q14 -14 21 -32.5t7 -37.5t-7 -36.5t-21 -32.5z" />
    <glyph glyph-name="uF016F" unicode="&#xf016f;" 
d="M854 73l-313 309l-314 -309q-14 -15 -32.5 -22t-37.5 -7t-37 7t-32 22q-30 28 -30 68t30 69l377 374q14 14 34 22t40.5 9t39.5 -5t31 -20l383 -380q29 -29 29 -69t-29 -68q-14 -15 -32.5 -22t-37.5 -7t-37 7t-32 22z" />
    <glyph glyph-name="uF0170" unicode="&#xf0170;" horiz-adv-x="1026" 
d="M857 588q29 28 69.5 28t68.5 -28q30 -29 30 -69t-30 -68l-383 -381q-12 -15 -30.5 -20.5t-39 -4.5t-40.5 8.5t-34 22.5l-377 375q-30 28 -30 68t30 69q14 14 32 21t37 7t37.5 -7t32.5 -21l314 -310z" />
    <glyph glyph-name="uF01B7" unicode="&#xf01b7;" 
d="M920 86.5q3 -26.5 7 -59t7.5 -66.5t7.5 -67.5t7 -61.5q6 -47 -41 -44q-25 2 -57 5.5t-65 7.5t-65.5 8t-59.5 7q-29 3 -37.5 16.5t9.5 31.5q11 10 27 27.5t27 28.5q11 12 7 22t-16 23q-28 27 -51.5 49t-51.5 51l-12 14q-6 7 -9 15.5t-1 18t13 20.5q6 6 10 10.5t8 8t8.5 8
t11.5 12.5q21 20 38 17t37 -23t41 -40.5t47 -46.5q19 -19 32.5 -26t26.5 6q10 10 23.5 22.5t23.5 22.5q17 17 30.5 13t16.5 -30.5zM44 428q-3 26 -7 59t-7.5 67t-7.5 67.5t-7 60.5t6.5 37t33.5 8q25 -2 56.5 -5.5t65 -7.5t66 -8.5t59.5 -7.5q30 -3 37.5 -16.5t-9.5 -30.5
q-10 -10 -24.5 -26t-25.5 -27q-12 -12 -8 -22t17 -23q13 -14 24.5 -24.5t22.5 -21t23 -23.5l25 -25q6 -6 11.5 -14t8.5 -17t-0.5 -19t-13.5 -20l-11 -11q-4 -4 -7.5 -8t-8.5 -8l-11 -12q-20 -20 -34.5 -15t-34.5 25t-38 37.5t-44 43.5q-19 18 -33 25t-27 -6
q-9 -10 -25 -24.5t-26 -24.5q-17 -17 -30 -13t-16 30zM906 728q26 3 36 -6.5t8 -35t-5.5 -57t-7.5 -64.5l-8 -66q-4 -33 -7 -60q-3 -29 -16.5 -37t-30.5 10q-10 10 -26 24.5t-28 25.5t-22 7.5t-23 -16.5q-27 -27 -47.5 -49t-48.5 -50q-6 -6 -14 -11.5t-17 -8t-19 0.5t-21 14
q-6 6 -10.5 10t-8.5 8t-8.5 8t-11.5 12q-20 20 -16 35t25 35l38 41l46 46q19 18 26 32t-7 26q-9 9 -23 24.5t-24 25.5q-18 17 -13.5 30t30.5 16t58.5 7.5t67 8t68 7.5t60.5 7zM350 172q6 -6 10.5 -10t8.5 -8l8 -9l12 -11q21 -20 18 -36.5t-24 -38.5q-19 -19 -40 -40.5
t-47 -47.5q-18 -18 -22.5 -29.5t8.5 -24.5q10 -9 22.5 -22.5t22.5 -23.5q17 -18 12.5 -31t-30.5 -16t-58 -7t-67 -8t-68.5 -8t-60.5 -7q-25 -2 -35.5 7.5t-8.5 33.5q2 26 5.5 57.5t7.5 64.5t8 65.5t7 60.5q3 30 16.5 37.5t30.5 -9.5q10 -10 27.5 -26t28.5 -28
q12 -12 20 -10.5t20 14.5q14 14 26 26.5t24 24.5t24.5 25t26.5 27q6 6 13 12t15.5 9t18 0.5t20.5 -13.5z" />
    <glyph glyph-name="uF01E9" unicode="&#xf01e9;" 
d="M65 -85v641l256 63v-640zM384 -21v640l257 -63v-641zM705 556l256 63v-640l-256 -64v641z" />
    <glyph glyph-name="uF01EA" unicode="&#xf01ea;" 
d="M241 472q6 -24 13.5 -51.5t17.5 -56t22 -56.5t27 -53v-404l-256 -63v640zM317 507q0 5 -0.5 9.5t-0.5 9.5q0 46 18 86t49 70.5t72 47.5t88 17t88 -17t71.5 -47.5t48.5 -70.5t18 -86v-12q0 -6 -1 -12q-6 -55 -24 -104.5t-45.5 -95.5t-63.5 -88.5t-77 -81.5q-7 -7 -15 -7
t-16 7q-42 39 -77.5 82t-63.5 90t-45.5 98t-23.5 105zM542.5 621q-20.5 0 -38 -7.5t-30 -20t-20.5 -30t-8 -37t8 -37t20.5 -30.5t30 -20t38 -7t38.5 7t31 20t20.5 30.5t7.5 37t-7.5 37t-20.5 30t-31 20t-38.5 7.5zM384 172q30 -33 58 -59.5t51 -46.5q26 -24 50 -42
q12 10 27 23q14 11 31 28.5t40 39.5v-327l-257 63v321zM961 493v-642l-256 -63v392q6 6 11.5 13t11.5 13q21 22 38 53.5t31 66.5t25 70.5t19 66.5z" />
    <glyph glyph-name="uF0292" unicode="&#xf0292;" 
d="M625 608l-40 40l-365 -366l365 -366l40 40l-326 326z" />
    <glyph glyph-name="uF02A9" unicode="&#xf02a9;" 
d="M186 484l-40 -39l366 -366l366 366l-40 39l-326 -326z" />
    <glyph glyph-name="uF02AA" unicode="&#xf02aa;" 
d="M838 79l40 40l-366 365l-366 -365l40 -40l326 326z" />
    <glyph glyph-name="uF02AF" unicode="&#xf02af;" 
d="M399 -44l40 -40l365 366l-365 366l-40 -40l326 -326z" />
  </font>
</defs>
</svg>
